<svg xmlns="http://www.w3.org/2000/svg" version="1.1" xmlns:xlink="http://www.w3.org/1999/xlink" xmlns:svgjs="http://svgjs.dev/svgjs" width="1500" height="1500" viewBox="0 0 1500 1500"><rect width="1500" height="1500" fill="#ffffff"></rect><g transform="matrix(0.6666666666666666,0,0,0.6666666666666666,249.39393939393938,632.6411890587799)"><svg viewBox="0 0 396 93" data-background-color="#ffffff" preserveAspectRatio="xMidYMid meet" height="352" width="1500" xmlns="http://www.w3.org/2000/svg" xmlns:xlink="http://www.w3.org/1999/xlink"><g id="tight-bounds" transform="matrix(1,0,0,1,0.2400000000000091,0.010096949716455583)"><svg viewBox="0 0 395.52 92.9798061005671" height="92.9798061005671" width="395.52"><g><svg viewBox="0 0 395.52 92.9798061005671" height="92.9798061005671" width="395.52"><g transform="matrix(1,0,0,1,0,57.46525033497164)"><svg viewBox="0 0 395.52 35.51455576559546" height="35.51455576559546" width="395.52"><g id="textblocktransform"><svg viewBox="0 0 395.52 35.51455576559546" height="35.51455576559546" width="395.52" id="textblock"><g><svg viewBox="0 0 395.52 35.51455576559546" height="35.51455576559546" width="395.52"><g transform="matrix(1,0,0,1,0,0)"><svg width="395.52" viewBox="1.55 -37.5 423.15999999999997 38" height="35.51455576559546" data-palette-color="#000000"><path d="M17.35 0L1.55 0 1.55-1.7 5.75-1.7 5.75-35.3 1.55-35.3 1.55-37 22.6-37 22.6-26.3 21.2-26.3 20.5-31.65Q20.05-35.25 16.35-35.25L16.35-35.25 9.25-35.25 9.25-21.05 16.3-21.05 16.3-27.4 17.8-27.4 17.8-13 16.3-13 16.3-19.35 9.25-19.35 9.25-1.7 17.35-1.7 17.35 0ZM47.5 0L27.6 0 27.6-1.7 35.8-1.7 35.8-35.3 27.6-35.3 27.6-37 47.5-37 47.5-35.3 39.3-35.3 39.3-1.7 47.5-1.7 47.5 0ZM70.7 0.5L69.5 0.5 56.75-29.3 56.75-1.7 60.95-1.7 60.95 0 51.85 0 51.85-1.7 55.05-1.7 55.05-35.3 51.85-35.3 51.85-37 56.95-37 69-8.8 69-35.3 64.8-35.3 64.8-37 73.9-37 73.9-35.3 70.7-35.3 70.7 0.5ZM82.84 0L74.94 0 74.94-1.7 77.59-1.7 86.24-37 88.24-37 96.89-1.7 100.09-1.7 100.09 0 88.29 0 88.29-1.7 93.34-1.7 90.44-13.55 82.19-13.55 79.34-1.7 82.84-1.7 82.84 0ZM90.04-15.15L86.29-30.6 82.59-15.15 90.04-15.15ZM120.69 0.5L119.49 0.5 106.74-29.3 106.74-1.7 110.94-1.7 110.94 0 101.84 0 101.84-1.7 105.04-1.7 105.04-35.3 101.84-35.3 101.84-37 106.94-37 118.99-8.8 118.99-35.3 114.79-35.3 114.79-37 123.89-37 123.89-35.3 120.69-35.3 120.69 0.5ZM137.69 0.5L137.69 0.5Q135.14 0.5 133.21-1.1 131.29-2.7 130.01-5.43 128.74-8.15 128.09-11.55 127.44-14.95 127.44-18.5L127.44-18.5Q127.44-22.05 128.09-25.45 128.74-28.85 130.01-31.58 131.29-34.3 133.21-35.9 135.14-37.5 137.69-37.5L137.69-37.5Q139.69-37.5 141.06-36.68 142.44-35.85 143.24-34.7 144.04-33.55 144.29-32.45L144.29-32.45 144.69-32.45 144.69-37 146.29-37 146.29-24.4 143.69-24.4 143.69-25.55Q143.69-29.4 142.81-31.6 141.94-33.8 140.56-34.73 139.19-35.65 137.69-35.65L137.69-35.65Q134.79-35.65 133.21-33.35 131.64-31.05 131.64-26.75L131.64-26.75 131.64-10.25Q131.64-5.95 133.19-3.65 134.74-1.35 137.69-1.35L137.69-1.35Q139.19-1.35 140.56-2.27 141.94-3.2 142.81-5.4 143.69-7.6 143.69-11.45L143.69-11.45 143.69-12.6 146.29-12.6 146.29 0 144.69 0 144.69-4.55 144.29-4.55Q144.04-3.5 143.24-2.33 142.44-1.15 141.06-0.33 139.69 0.5 137.69 0.5ZM172.49 0L152.59 0 152.59-1.7 160.79-1.7 160.79-35.3 152.59-35.3 152.59-37 172.49-37 172.49-35.3 164.29-35.3 164.29-1.7 172.49-1.7 172.49 0ZM182.83 0L174.93 0 174.93-1.7 177.58-1.7 186.23-37 188.23-37 196.88-1.7 200.08-1.7 200.08 0 188.28 0 188.28-1.7 193.33-1.7 190.43-13.55 182.18-13.55 179.33-1.7 182.83-1.7 182.83 0ZM190.03-15.15L186.28-30.6 182.58-15.15 190.03-15.15ZM222.58 0L201.53 0 201.53-1.7 205.73-1.7 205.73-35.3 201.53-35.3 201.53-37 213.43-37 213.43-35.3 209.23-35.3 209.23-1.75 216.33-1.75Q219.98-1.75 220.43-5.4L220.43-5.4 221.18-11.7 222.58-11.7 222.58 0ZM271.08 0L253.68 0 253.68-1.6 260.63-1.6 260.63-35.25 257.68-35.25Q253.98-35.25 253.53-31.65L253.53-31.65 252.83-26.3 251.43-26.3 251.43-37.5 252.33-37.5 253.83-37 270.93-37 272.43-37.5 273.33-37.5 273.33-26.3 271.93-26.3 271.23-31.65Q270.78-35.25 267.08-35.25L267.08-35.25 264.13-35.25 264.13-1.6 271.08-1.6 271.08 0ZM295.42 0.5L295.42 0.5Q293.32 0.5 292.2-0.93 291.07-2.35 291.07-4.65L291.07-4.65 291.07-13.85Q291.07-16.6 290.05-17.68 289.02-18.75 285.97-18.75L285.97-18.75 283.57-18.75 283.57-1.7 287.72-1.7 287.72 0 275.87 0 275.87-1.7 280.07-1.7 280.07-35.3 275.87-35.3 275.87-37 287.37-37Q291.12-37 293.35-35.6 295.57-34.2 296.55-32.1 297.52-30 297.52-27.95L297.52-27.95Q297.52-24.6 295.47-22.45 293.42-20.3 290.02-19.6L290.02-19.6 289.77-19.55 289.77-19.25 290.02-19.2Q292.22-18.75 293.37-17.6 294.52-16.45 294.52-13.85L294.52-13.85 294.52-5.05Q294.52-4.55 294.6-3.78 294.67-3 295.07-2.43 295.47-1.85 296.37-1.85L296.37-1.85Q297.52-1.85 297.87-2.78 298.22-3.7 298.22-4.75L298.22-4.75 298.22-13.4 299.72-13.4 299.72-4.6Q299.72-3.5 299.35-2.3 298.97-1.1 298.05-0.3 297.12 0.5 295.42 0.5ZM283.57-35.4L283.57-20.35 286.52-20.35Q289.87-20.35 291.65-21.63 293.42-22.9 293.42-26.25L293.42-26.25 293.42-29Q293.42-32.35 291.65-33.88 289.87-35.4 286.52-35.4L286.52-35.4 283.57-35.4ZM307.82 0L299.92 0 299.92-1.7 302.57-1.7 311.22-37 313.22-37 321.87-1.7 325.07-1.7 325.07 0 313.27 0 313.27-1.7 318.32-1.7 315.42-13.55 307.17-13.55 304.32-1.7 307.82-1.7 307.82 0ZM315.02-15.15L311.27-30.6 307.57-15.15 315.02-15.15ZM337.67 0.5L337.67 0.5Q335.12 0.5 333.19-1.1 331.27-2.7 329.99-5.43 328.72-8.15 328.07-11.55 327.42-14.95 327.42-18.5L327.42-18.5Q327.42-22.05 328.07-25.45 328.72-28.85 329.99-31.58 331.27-34.3 333.19-35.9 335.12-37.5 337.67-37.5L337.67-37.5Q339.67-37.5 341.04-36.68 342.42-35.85 343.22-34.7 344.02-33.55 344.27-32.45L344.27-32.45 344.67-32.45 344.67-37 346.27-37 346.27-24.4 343.67-24.4 343.67-25.55Q343.67-29.4 342.79-31.6 341.92-33.8 340.54-34.73 339.17-35.65 337.67-35.65L337.67-35.65Q334.77-35.65 333.19-33.35 331.62-31.05 331.62-26.75L331.62-26.75 331.62-10.25Q331.62-5.95 333.17-3.65 334.72-1.35 337.67-1.35L337.67-1.35Q339.17-1.35 340.54-2.27 341.92-3.2 342.79-5.4 343.67-7.6 343.67-11.45L343.67-11.45 343.67-12.6 346.27-12.6 346.27 0 344.67 0 344.67-4.55 344.27-4.55Q344.02-3.5 343.22-2.33 342.42-1.15 341.04-0.33 339.67 0.5 337.67 0.5ZM361.52 0L350.02 0 350.02-1.7 353.32-1.7 353.32-35.3 350.02-35.3 350.02-37 360.02-37 360.02-35.3 356.72-35.3 356.72-18 367.97-35.3 364.97-35.3 364.97-37 374.22-37 374.22-35.3 370.02-35.3 361.92-22.85 371.97-1.7 375.52-1.7 375.52 0 364.32 0 364.32-1.7 368.27-1.7 359.77-19.55 356.72-14.85 356.72-1.7 361.52-1.7 361.52 0ZM397.56 0L376.51 0 376.51-1.7 380.71-1.7 380.71-35.3 376.51-35.3 376.51-37 397.06-37 397.06-26.3 395.66-26.3 394.96-31.65Q394.51-35.25 390.81-35.25L390.81-35.25 384.21-35.25 384.21-21.05 390.66-21.05 390.66-27.4 392.26-27.4 392.26-13 390.66-13 390.66-19.35 384.21-19.35 384.21-1.75 391.31-1.75Q394.96-1.75 395.41-5.4L395.41-5.4 396.16-11.7 397.56-11.7 397.56 0ZM420.41 0.5L420.41 0.5Q418.31 0.5 417.19-0.93 416.06-2.35 416.06-4.65L416.06-4.65 416.06-13.85Q416.06-16.6 415.04-17.68 414.01-18.75 410.96-18.75L410.96-18.75 408.56-18.75 408.56-1.7 412.71-1.7 412.71 0 400.86 0 400.86-1.7 405.06-1.7 405.06-35.3 400.86-35.3 400.86-37 412.36-37Q416.11-37 418.34-35.6 420.56-34.2 421.54-32.1 422.51-30 422.51-27.95L422.51-27.95Q422.51-24.6 420.46-22.45 418.41-20.3 415.01-19.6L415.01-19.6 414.76-19.55 414.76-19.25 415.01-19.2Q417.21-18.75 418.36-17.6 419.51-16.45 419.51-13.85L419.51-13.85 419.51-5.05Q419.51-4.55 419.59-3.78 419.66-3 420.06-2.43 420.46-1.85 421.36-1.85L421.36-1.85Q422.51-1.85 422.86-2.78 423.21-3.7 423.21-4.75L423.21-4.75 423.21-13.4 424.71-13.4 424.71-4.6Q424.71-3.5 424.34-2.3 423.96-1.1 423.04-0.3 422.11 0.5 420.41 0.5ZM408.56-35.4L408.56-20.35 411.51-20.35Q414.86-20.35 416.64-21.63 418.41-22.9 418.41-26.25L418.41-26.25 418.41-29Q418.41-32.35 416.64-33.88 414.86-35.4 411.51-35.4L411.51-35.4 408.56-35.4Z" opacity="1" transform="matrix(1,0,0,1,0,0)" fill="#000000" class="wordmark-text-0" data-fill-palette-color="primary" id="text-0"></path></svg></g></svg></g></svg></g></svg></g><g transform="matrix(1,0,0,1,173.21944196597352,0)"><svg viewBox="0 0 49.08111606805293 49.08111606805293" height="49.08111606805293" width="49.08111606805293"><g><svg xmlns="http://www.w3.org/2000/svg" xmlns:xlink="http://www.w3.org/1999/xlink" version="1.1" x="0" y="0" viewBox="5 5 90 90" enable-background="new 0 0 100 100" xml:space="preserve" height="49.08111606805293" width="49.08111606805293" class="icon-icon-0" data-fill-palette-color="accent" id="icon-0"><path d="M84.3 5.7C83.8 5.3 83.2 5 82.5 5h-65c-0.7 0-1.3 0.3-1.8 0.7l-10 10C5.3 16.2 5 16.8 5 17.5v65c0 0.7 0.3 1.3 0.7 1.8l10 10c0.5 0.5 1.1 0.7 1.8 0.7h65c0.7 0 1.3-0.3 1.8-0.7l10-10c0.5-0.5 0.7-1.1 0.7-1.8v-65c0-0.7-0.3-1.3-0.7-1.8L84.3 5.7zM86.3 76.1V23.9L90 21V79L86.3 76.1zM10 79V21l3.8 2.9v52.1L10 79zM16.3 25.9l5 3.9c0 0.1 0 0.1 0 0.2v40c0 0.1 0 0.1 0 0.2l-5 3.9V25.9zM70.1 33.3l-3.4-3.4 3.9-5 4.6 4.6L70.1 33.3zM35.6 71.3h28.8l3.9 5H31.7L35.6 71.3zM64.5 68.8h-29l-4.3-4.3v-29l4.3-4.3h29l4.3 4.3v29L64.5 68.8zM64.4 28.8H35.6l-3.9-5h36.6L64.4 28.8zM70.2 21.3c-0.1 0-0.1 0-0.2 0H30c-0.1 0-0.1 0-0.2 0l-3.9-5h48.2L70.2 21.3zM33.3 29.9l-3.4 3.4-5-3.9 4.6-4.6L33.3 29.9zM28.8 35.6v28.8l-5 3.9V31.7L28.8 35.6zM29.9 66.7l3.4 3.4-3.9 5-4.6-4.6L29.9 66.7zM29.8 78.7c0.1 0 0.1 0 0.2 0h40c0.1 0 0.1 0 0.2 0l3.9 5H25.9L29.8 78.7zM66.7 70.1l3.4-3.4 5 3.9-4.6 4.6L66.7 70.1zM71.3 64.4V35.6l5-3.9v36.6L71.3 64.4zM77.1 27.9l-5-5 4.5-5.7 6.3 6.3L77.1 27.9zM76.1 13.8H23.9L21 10H79L76.1 13.8zM27.9 22.9l-5 5-6.4-5 6.4-6.4L27.9 22.9zM22.9 72.1l5 5-5 6.4-6.4-6.4L22.9 72.1zM23.9 86.3h52.1L79 90H21L23.9 86.3zM72.1 77.1l5-5 6.4 5-6.4 6.4L72.1 77.1zM78.7 70.2c0-0.1 0-0.1 0-0.2V30c0-0.1 0-0.1 0-0.2l5-3.9v48.2L78.7 70.2zM89.6 18.2l-4.8 3.7-6.7-6.7 3.7-4.8L89.6 18.2zM18.2 10.4l3.1 4-6.9 6.9-4-3.1L18.2 10.4zM10.4 81.8l4-3.1 6.9 6.9-3.1 4L10.4 81.8zM81.8 89.6l-3.1-4 6.9-6.9 4 3.1L81.8 89.6z" fill="#000000" data-fill-palette-color="accent"></path></svg></g></svg></g><g></g></svg></g><defs></defs></svg><rect width="395.52" height="92.9798061005671" fill="none" stroke="none" visibility="hidden"></rect></g></svg></g></svg>